<?xml version="1.0" encoding="UTF-8"?>
<svg width="1437px" height="364px" viewBox="0 0 1437 364" version="1.1" xmlns="http://www.w3.org/2000/svg" xmlns:xlink="http://www.w3.org/1999/xlink">
    <title>logo-light</title>
    <g id="logo-light" stroke="none" stroke-width="1" fill="none" fill-rule="evenodd">
        <path d="M129.335245,51.9175477 L130.041642,52.251524 L130.737692,52.5882382 L131.303045,52.8673546 L132.02473,53.2310515 L132.587951,53.5207091 L133.363674,53.9280929 L133.907235,54.2194369 L134.654219,54.6278138 L135.198361,54.9311847 L135.937213,55.3511455 C136.450761,55.646288 136.961437,55.946557 137.469318,56.251966 L138.344307,56.7849165 L138.902254,57.1319069 L139.616653,57.5844355 L140.151432,57.9293117 L140.864665,58.3975452 L141.382526,58.7435135 L142.087272,59.222549 C142.575052,59.5574093 143.060099,59.8972973 143.542272,60.242093 L144.407082,60.8680218 L144.939494,61.2609269 L145.580265,61.741558 L146.123354,62.1556506 L146.736294,62.6305332 C147.470556,63.2042327 148.197567,63.7897258 148.916996,64.3866803 L150.175167,65.448976 L150.661941,65.8699607 L151.316151,66.4447424 L151.764385,66.8446048 L152.470369,67.4845586 L152.911966,67.8912803 L153.455424,68.3987292 C154.140601,69.0433701 154.817637,69.6988373 155.486381,70.3649472 L156.670262,71.5641987 L157.087521,71.9966168 L157.762747,72.7074456 L158.179165,73.1527783 L158.727683,73.7476665 C159.355442,74.4339523 159.974966,75.1301227 160.586057,75.8359509 L161.696877,77.1407126 L162.618129,78.2568493 C163.065235,78.8062762 163.507264,79.3608916 163.944278,79.9207796 L163.944278,67 C163.944278,63.1340068 167.078285,60 170.944278,60 L180.941381,60 C184.807357,60.0000437 187.941357,63.1340238 187.941425,67 L187.943235,357 C187.943302,360.865993 184.809315,364.00002 180.943322,364.000044 C180.943307,364.000044 180.943293,364.000044 180.943278,364 L170.944278,364 C167.078322,363.999904 163.944331,360.865956 163.944182,357 L163.941381,152 L163.941381,152 C163.941381,145.23472 163.274902,138.656238 162.016435,132.353944 L161.886658,131.715158 L161.643575,130.573407 L161.432836,129.634263 L161.286061,129.004699 L161.069525,128.108855 L160.765478,126.909969 L160.46151,125.771702 L160.336449,125.319063 L160.078177,124.41058 C159.908979,123.826449 159.734559,123.24525 159.554984,122.667065 L159.281763,121.802057 L159.098435,121.237344 L158.754954,120.210584 L158.501701,119.47778 L158.335005,119.0059 L158.125273,118.423364 L157.940141,117.919019 L157.671532,117.202847 L157.52314,116.814746 C157.353465,116.37396 157.180701,115.935237 157.004881,115.498618 C156.730483,114.8172 156.448637,114.140891 156.159472,113.469859 L155.733029,112.495988 L155.469515,111.909309 L154.995652,110.881499 L154.723635,110.306447 L154.487675,109.816012 L153.971957,108.769911 L153.490483,107.823413 L152.929706,106.755209 L152.688521,106.306487 L152.37305,105.728834 L152.139891,105.308449 L151.784087,104.677285 L151.551526,104.271296 L151.229913,103.718098 L150.971224,103.279884 L150.61825,102.69135 C149.943783,101.576916 149.247048,100.483146 148.528828,99.4109815 L147.869805,98.4419758 L147.193269,97.476888 L146.586355,96.635413 L146.288154,96.2300493 L145.853151,95.647968 L145.61949,95.3397304 C145.329763,94.9594208 145.037159,94.5823202 144.741721,94.208478 L144.124008,93.4366819 L143.498367,92.6745294 L143.308676,92.4472219 L142.809112,91.8567741 L142.50845,91.5070198 L142.100986,91.0395963 L141.763154,90.6576731 L141.075839,89.895982 C140.770237,89.5617963 140.462159,89.2308149 140.151642,88.9030821 C139.945371,88.6853774 139.738391,88.4694862 139.530351,88.2550363 L140.151642,88.9030821 L139.735702,88.4675403 L139.316885,88.0358808 L138.506626,87.2199139 L137.959283,86.6826089 L137.655542,86.3891522 L137.185509,85.9415411 L136.852474,85.6291019 L136.063607,84.904267 L135.65647,84.5383926 L135.441368,84.3473077 C134.824542,83.8015319 134.199983,83.267613 133.567926,82.7458312 L133.294042,82.5208752 L132.779578,82.1044441 L132.356743,81.7680873 L131.912339,81.4202268 L131.524872,81.1216002 L131.037283,80.7518969 L130.676299,80.4825046 L130.134667,80.0850907 L129.805156,79.8472559 C129.505914,79.6326099 129.205225,79.4205686 128.903111,79.2111579 L127.89329,78.5245526 L127.359045,78.1719566 L126.82198,77.8247941 L126.278183,77.4806307 L125.891475,77.2403326 L125.313432,76.8879454 L124.422644,76.3606373 L123.58769,75.8834074 L123.410913,75.7844517 C122.932767,75.5177738 122.451691,75.2573844 121.96776,75.0033723 L121.239732,74.6271479 L120.921594,74.4664315 L120.309037,74.1632302 L119.934423,73.9818262 L119.346353,73.7031553 L118.962345,73.5251721 L118.382896,73.2625147 L117.94943,73.0706418 L117.425084,72.8437706 L117.011112,72.6686709 L116.339628,72.39212 C115.911637,72.2187805 115.481792,72.0502718 115.05014,71.8866477 L116.019969,72.263692 L115.43869,72.0354406 L114.85519,71.8131276 C114.499195,71.6795642 114.141979,71.5493204 113.783566,71.4224265 L113.000572,71.1511952 L112.207217,70.8884951 L111.500714,70.6647262 L110.67684,70.4157726 L110.150386,70.2633983 L109.368326,70.0466205 L109.622393,70.1157942 C109.142681,69.9840507 108.661089,69.8582216 108.177675,69.7383741 L107.610472,69.6007006 L107.108187,69.4836879 L106.56497,69.3622977 L106.080203,69.2584741 L105.498136,69.1393987 L105.091141,69.0597449 L104.416563,68.9342291 L104.033361,68.8665291 L103.520072,68.7799181 L103.005598,68.6977691 L102.460738,68.6158374 L102.109439,68.5657678 C101.690745,68.5073776 101.270924,68.4534209 100.85001,68.4039381 L101.914588,68.5389256 C101.455725,68.4764934 100.995517,68.4193849 100.534008,68.3676529 L99.81078,68.291098 L99.3702209,68.2488792 L98.7211632,68.1927493 L98.2625805,68.1574389 L97.6526804,68.1160384 L97.1925101,68.0889937 L96.5425401,68.0569206 L96.1095355,68.0395263 L95.3343405,68.0162999 C94.8711095,68.0054501 94.4067757,68 93.9413812,68 C55.2814488,68 23.9413812,105.608081 23.9413812,152 C23.9413812,198.391919 55.2814488,236 93.9413812,236 C103.673832,236 112.942382,233.616564 121.3638,229.30957 L121.840112,229.06081 C121.965832,228.993893 122.106932,228.916717 122.26341,228.829281 C125.637347,226.941836 129.90226,228.14787 131.788919,231.522247 C131.863187,231.655079 131.933103,231.790298 131.999184,231.927388 L136.260531,240.876926 C137.849092,244.213373 136.569694,248.209664 133.339129,250.00378 C131.9319,250.784617 130.95796,251.305921 130.417308,251.567693 C119.20153,256.998146 106.876573,260 93.9413812,260 C52.5286743,260 17.3708376,229.231164 4.84111118,186.505298 C1.96786893,180.508768 -0.058618755,169.332179 -0.058618755,152 C-0.058618755,92.353247 42.0266148,44 93.9413812,44 C94.40549,44 94.8688132,44.0038644 95.3313278,44.0115668 L93.9413812,44 C94.460146,44 94.9779293,44.0048282 95.4946989,44.0144476 L96.1218255,44.0284845 L97.0973609,44.0597248 L97.6900889,44.0843114 L98.5890511,44.129707 L99.2445463,44.1689824 L99.9395187,44.2163252 C100.573464,44.2621947 101.205533,44.3152654 101.835779,44.3754752 L102.895069,44.4835699 L103.556767,44.5581086 L104.396747,44.6605332 L105.014671,44.7414719 L105.958734,44.8743163 L106.55964,44.9646787 L107.343543,45.089378 L107.999178,45.1996213 L108.736293,45.3300648 L109.353791,45.4446551 L110.186976,45.6069878 L110.824419,45.7371938 L111.609139,45.9046737 L112.207425,46.0377201 L113.152029,46.2572651 L113.732899,46.3980682 L114.541962,46.6015837 L115.147039,46.7594477 L115.870576,46.95461 C116.453349,47.1146167 117.034119,47.2808914 117.612758,47.4533499 L118.637846,47.7660237 L119.262993,47.9637675 L120.042985,48.2180485 L120.671755,48.4291793 L121.379249,48.6733512 L122.020517,48.9007533 L122.773995,49.175395 C123.596463,49.4795971 124.41405,49.7964898 125.226515,50.1258493 L126.052302,50.4656334 L126.904368,50.8268353 L127.455127,51.0660932 L128.128733,51.3649476 L128.733285,51.6390484 L129.335245,51.9175477 Z" id="Path" fill="#000000" transform="translate(93.942330, 204.000000) scale(-1, 1) translate(-93.942330, -204.000000) "></path>
        <path d="M349.393863,51.9175477 L350.100261,52.251524 L350.796311,52.5882382 L351.361664,52.8673546 L352.083349,53.2310515 L352.64657,53.5207091 L353.422293,53.9280929 L353.965853,54.2194369 L354.712838,54.6278138 L355.25698,54.9311847 L355.995832,55.3511455 C356.50938,55.646288 357.020056,55.946557 357.527937,56.251966 L358.402926,56.7849165 L358.960873,57.1319069 L359.675272,57.5844355 L360.210051,57.9293117 L360.923284,58.3975452 L361.441145,58.7435135 L362.145891,59.222549 C362.633671,59.5574093 363.118717,59.8972973 363.600891,60.242093 L364.465701,60.8680218 L364.998113,61.2609269 L365.638884,61.741558 L366.181972,62.1556506 L366.794913,62.6305332 C367.529175,63.2042327 368.256186,63.7897258 368.975615,64.3866803 L370.233786,65.448976 L370.72056,65.8699607 L371.374769,66.4447424 L371.823004,66.8446048 L372.528987,67.4845586 L372.970585,67.8912803 L373.514043,68.3987292 C374.19922,69.0433701 374.876256,69.6988373 375.545,70.3649472 L376.728881,71.5641987 L377.14614,71.9966168 L377.821366,72.7074456 L378.237784,73.1527783 L378.786302,73.7476665 C379.41406,74.4339523 380.033584,75.1301227 380.644676,75.8359509 L381.755496,77.1407126 L382.676748,78.2568493 C383.123854,78.8062762 383.565883,79.3608916 384.002897,79.9207796 L384.002897,67 C384.002897,63.1340068 387.136904,60 391.002897,60 L401,60 C404.865993,59.9999485 408,63.1339553 408,66.9999485 C408,66.9999657 408,66.9999828 407.999949,67 L407.999,196.003967 L407.999,196.003967 L408.003483,196.661473 C408.233084,218.447771 419.784191,236 434,236 C436.327619,236 438.583799,235.529442 440.730542,234.646788 C441.173005,234.464866 441.610818,234.265437 442.043649,234.049014 L442.250055,233.939637 C442.250055,233.939637 442.250055,233.939637 442.250055,233.939637 C444.898307,232.46884 448.237456,233.423357 449.708252,236.071609 C449.798857,236.234748 449.881077,236.402403 449.954622,236.57391 L454.462789,247.092046 C455.891518,250.428181 454.533978,254.303116 451.334792,256.016672 C451.024865,256.182967 450.814543,256.291223 450.703827,256.341439 C445.480355,258.710601 439.857816,260 434,260 C406.386807,260 384.001693,231.348391 384,196.004009 L384,152 C384,145.23472 383.333521,138.656238 382.075053,132.353944 L381.945277,131.715158 L381.702193,130.573407 L381.491454,129.634263 L381.34468,129.004699 L381.128143,128.108855 L380.824097,126.909969 L380.520129,125.771702 L380.395068,125.319063 L380.136796,124.41058 C379.967598,123.826449 379.793178,123.24525 379.613603,122.667065 L379.340382,121.802057 L379.157054,121.237344 L378.813573,120.210584 L378.56032,119.47778 L378.393624,119.0059 L378.183892,118.423364 L377.99876,117.919019 L377.730151,117.202847 L377.581758,116.814746 C377.412084,116.37396 377.23932,115.935237 377.063499,115.498618 C376.789102,114.8172 376.507255,114.140891 376.218091,113.469859 L375.791647,112.495988 L375.528134,111.909309 L375.054271,110.881499 L374.782254,110.306447 L374.546294,109.816012 L374.030576,108.769911 L373.549102,107.823413 L372.988324,106.755209 L372.747139,106.306487 L372.431668,105.728834 L372.19851,105.308449 L371.842705,104.677285 L371.610145,104.271296 L371.288532,103.718098 L371.029842,103.279884 L370.676869,102.69135 C370.002402,101.576916 369.305667,100.483146 368.587447,99.4109815 L367.928424,98.4419758 L367.251888,97.476888 L366.644974,96.635413 L366.346773,96.2300493 L365.91177,95.647968 L365.678108,95.3397304 C365.388382,94.9594208 365.095778,94.5823202 364.800339,94.208478 L364.182627,93.4366819 L363.556986,92.6745294 L363.367295,92.4472219 L362.867731,91.8567741 L362.567069,91.5070198 L362.159605,91.0395963 L361.821773,90.6576731 L361.134457,89.895982 C360.828855,89.5617963 360.520778,89.2308149 360.210261,88.9030821 C360.003989,88.6853774 359.79701,88.4694862 359.58897,88.2550363 L360.210261,88.9030821 L359.794321,88.4675403 L359.375503,88.0358808 L358.565245,87.2199139 L358.017902,86.6826089 L357.714161,86.3891522 L357.244128,85.9415411 L356.911093,85.6291019 L356.122226,84.904267 L355.715089,84.5383926 L355.499987,84.3473077 C354.883161,83.8015319 354.258602,83.267613 353.626545,82.7458312 L353.352661,82.5208752 L352.838197,82.1044441 L352.415362,81.7680873 L351.970958,81.4202268 L351.583491,81.1216002 L351.095902,80.7518969 L350.734918,80.4825046 L350.193286,80.0850907 L349.863775,79.8472559 C349.564533,79.6326099 349.263844,79.4205686 348.96173,79.2111579 L347.951909,78.5245526 L347.417664,78.1719566 L346.880599,77.8247941 L346.336802,77.4806307 L345.950094,77.2403326 L345.372051,76.8879454 L344.481262,76.3606373 L343.646309,75.8834074 L343.469532,75.7844517 C342.991385,75.5177738 342.51031,75.2573844 342.026379,75.0033723 L341.298351,74.6271479 L340.980213,74.4664315 L340.367656,74.1632302 L339.993041,73.9818262 L339.404971,73.7031553 L339.020964,73.5251721 L338.441515,73.2625147 L338.008049,73.0706418 L337.483703,72.8437706 L337.069731,72.6686709 L336.398247,72.39212 C335.970256,72.2187805 335.540411,72.0502718 335.108758,71.8866477 L336.078588,72.263692 L335.497309,72.0354406 L334.913808,71.8131276 C334.557814,71.6795642 334.200598,71.5493204 333.842184,71.4224265 L333.059191,71.1511952 L332.265835,70.8884951 L331.559333,70.6647262 L330.735459,70.4157726 L330.209005,70.2633983 L329.426945,70.0466205 L329.681012,70.1157942 C329.201299,69.9840507 328.719708,69.8582216 328.236294,69.7383741 L327.669091,69.6007006 L327.166806,69.4836879 L326.623589,69.3622977 L326.138821,69.2584741 L325.556754,69.1393987 L325.149759,69.0597449 L324.475182,68.9342291 L324.091979,68.8665291 L323.57869,68.7799181 L323.064217,68.6977691 L322.519357,68.6158374 L322.168057,68.5657678 C321.749364,68.5073776 321.329543,68.4534209 320.908629,68.4039381 L321.973207,68.5389256 C321.514344,68.4764934 321.054136,68.4193849 320.592627,68.3676529 L319.869399,68.291098 L319.42884,68.2488792 L318.779782,68.1927493 L318.321199,68.1574389 L317.711299,68.1160384 L317.251129,68.0889937 L316.601159,68.0569206 L316.168154,68.0395263 L315.392959,68.0162999 C314.929728,68.0054501 314.465395,68 314,68 C275.340068,68 244,105.608081 244,152 C244,198.391919 275.340068,236 314,236 C323.732451,236 333.001,233.616564 341.422419,229.30957 L341.89873,229.06081 C342.024451,228.993893 342.165551,228.916717 342.322029,228.829281 C345.695966,226.941836 349.960879,228.14787 351.847537,231.522247 C351.921805,231.655079 351.991722,231.790298 352.057803,231.927388 L356.31915,240.876926 C357.90771,244.213373 356.628313,248.209664 353.397748,250.00378 C351.990519,250.784617 351.016578,251.305921 350.475927,251.567693 C339.260149,256.998146 326.935192,260 314,260 C272.587293,260 237.429456,229.231164 224.89973,186.505298 C222.026488,180.508768 220,169.332179 220,152 C220,92.353247 262.085234,44 314,44 C314.464109,44 314.927432,44.0038644 315.389947,44.0115668 L314,44 C314.518765,44 315.036548,44.0048282 315.553318,44.0144476 L316.180444,44.0284845 L317.15598,44.0597248 L317.748708,44.0843114 L318.64767,44.129707 L319.303165,44.1689824 L319.998137,44.2163252 C320.632083,44.2621947 321.264152,44.3152654 321.894398,44.3754752 L322.953688,44.4835699 L323.615386,44.5581086 L324.455366,44.6605332 L325.07329,44.7414719 L326.017353,44.8743163 L326.618258,44.9646787 L327.402162,45.089378 L328.057797,45.1996213 L328.794912,45.3300648 L329.412409,45.4446551 L330.245595,45.6069878 L330.883038,45.7371938 L331.667758,45.9046737 L332.266044,46.0377201 L333.210647,46.2572651 L333.791518,46.3980682 L334.60058,46.6015837 L335.205658,46.7594477 L335.929195,46.95461 C336.511968,47.1146167 337.092737,47.2808914 337.671377,47.4533499 L338.696464,47.7660237 L339.321612,47.9637675 L340.101603,48.2180485 L340.730374,48.4291793 L341.437868,48.6733512 L342.079135,48.9007533 L342.832614,49.175395 C343.655082,49.4795971 344.472668,49.7964898 345.285134,50.1258493 L346.110921,50.4656334 L346.962987,50.8268353 L347.513746,51.0660932 L348.187352,51.3649476 L348.791904,51.6390484 L349.393863,51.9175477 Z" id="Path" fill="#000000"></path>
        <path d="M557,44 C569.647743,44 581.712072,46.8699207 592.72657,52.0738806 L593.475927,52.4323066 C593.859223,52.617891 594.832927,53.1455912 596.397039,54.0154074 C599.623089,55.8119054 600.899162,59.8052502 599.31154,63.1390554 L595.055266,72.0779387 C593.391916,75.5678053 589.214671,77.0492304 585.724509,75.3864991 C585.560406,75.3083197 585.399411,75.2237779 585.242507,75.1319922 C585.092301,75.045495 584.977709,74.9812276 584.89873,74.9391899 L584.422419,74.6904302 C576.001,70.3834356 566.732451,68 557,68 C518.726667,68 487.627533,104.85968 487.009378,150.610906 L487,151.959 L487.009378,153.307733 C487.627533,199.058959 518.726667,235.918639 557,235.918639 C566.732451,235.918639 576.001,233.535204 584.422419,229.228209 L584.89873,228.97945 C584.996871,228.927212 585.122663,228.857414 585.276105,228.770055 C588.634914,226.855813 592.908641,228.030228 594.820239,231.39054 C594.903966,231.537719 594.982325,231.687888 595.055266,231.840701 L599.309004,240.774257 C600.896533,244.110166 599.61801,248.105403 596.387184,249.897139 C594.725481,250.82145 593.755062,251.351181 593.475927,251.486333 C582.260149,256.916785 569.935192,259.918639 557,259.918639 C515.649137,259.918639 480.534477,229.241632 467.956015,186.615272 C465.250639,181.057117 463.284694,170.949677 463.028416,155.491641 L463.009921,153.997103 L463,152.672507 C463,152.449425 463,152.225232 463,152 L463.006083,153.549931 L463.001525,152.738922 L463,151.877358 C463,151.369175 463.002341,150.866301 463.006083,150.368708 L463,151.918639 C463,151.242643 463.003083,150.57601 463.009178,149.918683 L463.022218,148.906003 C463.244594,133.176879 465.222766,122.91956 467.955505,117.301912 C480.533458,74.6778973 515.648537,44 557,44 Z" id="Path" fill="#000000"></path>
        <path d="M669.218816,7 L669.22,150.165 L669.22,150.165 L756.010327,84.7640743 C759.097856,82.4374825 763.486869,83.0543226 765.81349,86.1418291 L771.83164,94.1281842 C774.158315,97.215657 773.541478,101.604678 770.453958,103.931291 C770.453938,103.931307 770.453917,103.931322 770.45385,103.931276 L682.777,169.999 L682.777,169.999 L779.659537,239.420695 C782.802048,241.672479 783.524126,246.045418 781.272343,249.187929 C781.239696,249.23349 781.206503,249.278657 781.172771,249.323421 L775.156185,257.3077 C772.869339,260.342448 768.578989,260.998519 765.489722,258.785874 L669.22,189.834 L669.22,189.834 L669.221603,253 C669.221878,256.865993 666.087951,260.00008 662.221958,260.000178 C662.221899,260.000178 662.221839,260.000178 662.22178,260 L652.22178,260 C648.355842,259.999859 645.221858,256.865938 645.221639,253 L645.22,171.749 L645.22,171.749 L645,171.583626 L645.22,171.291 L645.22,168.708 L645,168.416374 L645.22,168.25 L645.218809,7 C645.218729,3.13400675 648.352713,-2.31404626e-05 652.218706,-5.16861407e-05 C652.218723,-5.16862679e-05 652.21874,-5.16863315e-05 652.218758,0 L662.218758,0 C666.084728,5.79115863e-05 669.218726,3.13402937 669.218816,7 Z" id="Path" fill="#000000"></path>
        <path d="M892,44 C942.132731,44 983.099168,89.0906572 985.852539,145.899086 C985.852539,145.899086 985.852539,145.899086 985.852539,145.899086 C986.161168,152.266812 981.249299,157.679068 974.881572,157.987697 C974.695394,157.99672 974.509025,158.001233 974.322629,158.001221 L865,158.000073 C861.134035,157.999959 858.000073,154.865965 858,151 L858,141 C857.999997,137.134007 861.134004,134 864.999997,134 C864.999998,134 864.999999,134 865,134.000003 L960.389111,134.000046 L960.389111,134.000046 C953.522423,96.2578388 925.5112,68 892,68 C853.340068,68 822,105.608081 822,152 C822,198.391919 853.340068,236 892,236 C901.732451,236 911.001,233.616564 919.422419,229.30957 C919.716458,229.159188 920.03384,228.990476 920.374565,228.803433 C923.763929,226.943833 928.018898,228.184494 929.878066,231.574095 C929.942571,231.691699 930.003682,231.811132 930.060339,231.932715 L934.336906,240.914216 C935.933581,244.268852 934.630798,248.286298 931.368265,250.063611 C930.251178,250.673596 929.287065,251.174957 928.475927,251.567693 C917.260149,256.998146 904.935192,260 892,260 C840.085234,260 798,211.646753 798,152 C798,92.353247 840.085234,44 892,44 Z" id="Path" fill="#000000"></path>
        <path d="M1025,60 L1035,60 C1038.86599,59.9990045 1042,63.1330112 1042,66.9990045 C1042,66.9993363 1042,66.9996682 1041.999,66.9999999 L1041.99698,81.2513459 L1041.99698,81.2513459 C1059.20707,58.3856311 1084.19356,44 1112,44 C1163.91477,44 1206,94.144108 1206,156 L1206,253 C1206,256.865993 1202.86599,260 1199,260 L1189,260 C1185.13401,260 1182,256.865993 1182,253 L1182,156 L1182,156 C1182,107.398942 1150.65993,68 1112,68 C1073.34007,68 1042,107.398942 1042,156 L1042,253 C1042,256.865993 1038.86599,260 1035,260 L1025,260 C1021.13401,260 1018,256.865993 1018,253 L1018,67 C1018,63.1340068 1021.13401,60 1025,60 Z" id="Path" fill="#000000"></path>
        <rect id="Rectangle" fill="#000000" x="1249" y="44" width="188" height="216" rx="24"></rect>
    </g>
</svg>