<?xml version="1.0" encoding="UTF-8"?>
<svg width="1437px" height="364px" viewBox="0 0 1437 364" version="1.1" xmlns="http://www.w3.org/2000/svg" xmlns:xlink="http://www.w3.org/1999/xlink">
    <title>logo-light</title>
    <g id="logo-light" stroke="none" stroke-width="1" fill="none" fill-rule="evenodd">
        <path d="M350.335245,51.9175477 L351.041642,52.251524 L351.737692,52.5882382 L352.303045,52.8673546 L353.02473,53.2310515 L353.587951,53.5207091 L354.363674,53.9280929 L354.907235,54.2194369 L355.654219,54.6278138 L356.198361,54.9311847 L356.937213,55.3511455 C357.450761,55.646288 357.961437,55.946557 358.469318,56.251966 L359.344307,56.7849165 L359.902254,57.1319069 L360.616653,57.5844355 L361.151432,57.9293117 L361.864665,58.3975452 L362.382526,58.7435135 L363.087272,59.222549 C363.575052,59.5574093 364.060099,59.8972973 364.542272,60.242093 L365.407082,60.8680218 L365.939494,61.2609269 L366.580265,61.741558 L367.123354,62.1556506 L367.736294,62.6305332 C368.470556,63.2042327 369.197567,63.7897258 369.916996,64.3866803 L371.175167,65.448976 L371.661941,65.8699607 L372.316151,66.4447424 L372.764385,66.8446048 L373.470369,67.4845586 L373.911966,67.8912803 L374.455424,68.3987292 C375.140601,69.0433701 375.817637,69.6988373 376.486381,70.3649472 L377.670262,71.5641987 L378.087521,71.9966168 L378.762747,72.7074456 L379.179165,73.1527783 L379.727683,73.7476665 C380.355442,74.4339523 380.974966,75.1301227 381.586057,75.8359509 L382.696877,77.1407126 L383.618129,78.2568493 C384.065235,78.8062762 384.507264,79.3608916 384.944278,79.9207796 L384.944278,67 C384.944278,63.1340068 388.078285,60 391.944278,60 L401.941381,60 C405.807357,60.0000437 408.941357,63.1340238 408.941425,67 L408.943235,357 C408.943302,360.865993 405.809315,364.00002 401.943322,364.000044 C401.943307,364.000044 401.943293,364.000044 401.943278,364 L391.944278,364 C388.078322,363.999904 384.944331,360.865956 384.944182,357 L384.941381,152 L384.941381,152 C384.941381,145.23472 384.274902,138.656238 383.016435,132.353944 L382.886658,131.715158 L382.643575,130.573407 L382.432836,129.634263 L382.286061,129.004699 L382.069525,128.108855 L381.765478,126.909969 L381.46151,125.771702 L381.336449,125.319063 L381.078177,124.41058 C380.908979,123.826449 380.734559,123.24525 380.554984,122.667065 L380.281763,121.802057 L380.098435,121.237344 L379.754954,120.210584 L379.501701,119.47778 L379.335005,119.0059 L379.125273,118.423364 L378.940141,117.919019 L378.671532,117.202847 L378.52314,116.814746 C378.353465,116.37396 378.180701,115.935237 378.004881,115.498618 C377.730483,114.8172 377.448637,114.140891 377.159472,113.469859 L376.733029,112.495988 L376.469515,111.909309 L375.995652,110.881499 L375.723635,110.306447 L375.487675,109.816012 L374.971957,108.769911 L374.490483,107.823413 L373.929706,106.755209 L373.688521,106.306487 L373.37305,105.728834 L373.139891,105.308449 L372.784087,104.677285 L372.551526,104.271296 L372.229913,103.718098 L371.971224,103.279884 L371.61825,102.69135 C370.943783,101.576916 370.247048,100.483146 369.528828,99.4109815 L368.869805,98.4419758 L368.193269,97.476888 L367.586355,96.635413 L367.288154,96.2300493 L366.853151,95.647968 L366.61949,95.3397304 C366.329763,94.9594208 366.037159,94.5823202 365.741721,94.208478 L365.124008,93.4366819 L364.498367,92.6745294 L364.308676,92.4472219 L363.809112,91.8567741 L363.50845,91.5070198 L363.100986,91.0395963 L362.763154,90.6576731 L362.075839,89.895982 C361.770237,89.5617963 361.462159,89.2308149 361.151642,88.9030821 C360.945371,88.6853774 360.738391,88.4694862 360.530351,88.2550363 L361.151642,88.9030821 L360.735702,88.4675403 L360.316885,88.0358808 L359.506626,87.2199139 L358.959283,86.6826089 L358.655542,86.3891522 L358.185509,85.9415411 L357.852474,85.6291019 L357.063607,84.904267 L356.65647,84.5383926 L356.441368,84.3473077 C355.824542,83.8015319 355.199983,83.267613 354.567926,82.7458312 L354.294042,82.5208752 L353.779578,82.1044441 L353.356743,81.7680873 L352.912339,81.4202268 L352.524872,81.1216002 L352.037283,80.7518969 L351.676299,80.4825046 L351.134667,80.0850907 L350.805156,79.8472559 C350.505914,79.6326099 350.205225,79.4205686 349.903111,79.2111579 L348.89329,78.5245526 L348.359045,78.1719566 L347.82198,77.8247941 L347.278183,77.4806307 L346.891475,77.2403326 L346.313432,76.8879454 L345.422644,76.3606373 L344.58769,75.8834074 L344.410913,75.7844517 C343.932767,75.5177738 343.451691,75.2573844 342.96776,75.0033723 L342.239732,74.6271479 L341.921594,74.4664315 L341.309037,74.1632302 L340.934423,73.9818262 L340.346353,73.7031553 L339.962345,73.5251721 L339.382896,73.2625147 L338.94943,73.0706418 L338.425084,72.8437706 L338.011112,72.6686709 L337.339628,72.39212 C336.911637,72.2187805 336.481792,72.0502718 336.05014,71.8866477 L337.019969,72.263692 L336.43869,72.0354406 L335.85519,71.8131276 C335.499195,71.6795642 335.141979,71.5493204 334.783566,71.4224265 L334.000572,71.1511952 L333.207217,70.8884951 L332.500714,70.6647262 L331.67684,70.4157726 L331.150386,70.2633983 L330.368326,70.0466205 L330.622393,70.1157942 C330.142681,69.9840507 329.661089,69.8582216 329.177675,69.7383741 L328.610472,69.6007006 L328.108187,69.4836879 L327.56497,69.3622977 L327.080203,69.2584741 L326.498136,69.1393987 L326.091141,69.0597449 L325.416563,68.9342291 L325.033361,68.8665291 L324.520072,68.7799181 L324.005598,68.6977691 L323.460738,68.6158374 L323.109439,68.5657678 C322.690745,68.5073776 322.270924,68.4534209 321.85001,68.4039381 L322.914588,68.5389256 C322.455725,68.4764934 321.995517,68.4193849 321.534008,68.3676529 L320.81078,68.291098 L320.370221,68.2488792 L319.721163,68.1927493 L319.262581,68.1574389 L318.65268,68.1160384 L318.19251,68.0889937 L317.54254,68.0569206 L317.109536,68.0395263 L316.334341,68.0162999 C315.871109,68.0054501 315.406776,68 314.941381,68 C276.281449,68 244.941381,105.608081 244.941381,152 C244.941381,198.391919 276.281449,236 314.941381,236 C324.673832,236 333.942382,233.616564 342.3638,229.30957 L342.840112,229.06081 C342.965832,228.993893 343.106932,228.916717 343.26341,228.829281 C346.637347,226.941836 350.90226,228.14787 352.788919,231.522247 C352.863187,231.655079 352.933103,231.790298 352.999184,231.927388 L357.260531,240.876926 C358.849092,244.213373 357.569694,248.209664 354.339129,250.00378 C352.9319,250.784617 351.95796,251.305921 351.417308,251.567693 C340.20153,256.998146 327.876573,260 314.941381,260 C273.528674,260 238.370838,229.231164 225.841111,186.505298 C222.967869,180.508768 220.941381,169.332179 220.941381,152 C220.941381,92.353247 263.026615,44 314.941381,44 C315.40549,44 315.868813,44.0038644 316.331328,44.0115668 L314.941381,44 C315.460146,44 315.977929,44.0048282 316.494699,44.0144476 L317.121826,44.0284845 L318.097361,44.0597248 L318.690089,44.0843114 L319.589051,44.129707 L320.244546,44.1689824 L320.939519,44.2163252 C321.573464,44.2621947 322.205533,44.3152654 322.835779,44.3754752 L323.895069,44.4835699 L324.556767,44.5581086 L325.396747,44.6605332 L326.014671,44.7414719 L326.958734,44.8743163 L327.55964,44.9646787 L328.343543,45.089378 L328.999178,45.1996213 L329.736293,45.3300648 L330.353791,45.4446551 L331.186976,45.6069878 L331.824419,45.7371938 L332.609139,45.9046737 L333.207425,46.0377201 L334.152029,46.2572651 L334.732899,46.3980682 L335.541962,46.6015837 L336.147039,46.7594477 L336.870576,46.95461 C337.453349,47.1146167 338.034119,47.2808914 338.612758,47.4533499 L339.637846,47.7660237 L340.262993,47.9637675 L341.042985,48.2180485 L341.671755,48.4291793 L342.379249,48.6733512 L343.020517,48.9007533 L343.773995,49.175395 C344.596463,49.4795971 345.41405,49.7964898 346.226515,50.1258493 L347.052302,50.4656334 L347.904368,50.8268353 L348.455127,51.0660932 L349.128733,51.3649476 L349.733285,51.6390484 L350.335245,51.9175477 Z" id="Path" fill="#000000" transform="translate(314.942330, 204.000000) scale(-1, 1) translate(-314.942330, -204.000000) "></path>
        <path d="M562.393863,51.9175477 L563.100261,52.251524 L563.796311,52.5882382 L564.361664,52.8673546 L565.083349,53.2310515 L565.64657,53.5207091 L566.422293,53.9280929 L566.965853,54.2194369 L567.712838,54.6278138 L568.25698,54.9311847 L568.995832,55.3511455 C569.50938,55.646288 570.020056,55.946557 570.527937,56.251966 L571.402926,56.7849165 L571.960873,57.1319069 L572.675272,57.5844355 L573.210051,57.9293117 L573.923284,58.3975452 L574.441145,58.7435135 L575.145891,59.222549 C575.633671,59.5574093 576.118717,59.8972973 576.600891,60.242093 L577.465701,60.8680218 L577.998113,61.2609269 L578.638884,61.741558 L579.181972,62.1556506 L579.794913,62.6305332 C580.529175,63.2042327 581.256186,63.7897258 581.975615,64.3866803 L583.233786,65.448976 L583.72056,65.8699607 L584.374769,66.4447424 L584.823004,66.8446048 L585.528987,67.4845586 L585.970585,67.8912803 L586.514043,68.3987292 C587.19922,69.0433701 587.876256,69.6988373 588.545,70.3649472 L589.728881,71.5641987 L590.14614,71.9966168 L590.821366,72.7074456 L591.237784,73.1527783 L591.786302,73.7476665 C592.41406,74.4339523 593.033584,75.1301227 593.644676,75.8359509 L594.755496,77.1407126 L595.676748,78.2568493 C596.123854,78.8062762 596.565883,79.3608916 597.002897,79.9207796 L597.002897,67 C597.002897,63.1340068 600.136904,60 604.002897,60 L614,60 C617.865993,59.9999485 621,63.1339553 621,66.9999485 C621,66.9999657 621,66.9999828 620.999949,67 L620.999,196.003967 L620.999,196.003967 L621.003483,196.661473 C621.233084,218.447771 632.784191,236 647,236 C649.327619,236 651.583799,235.529442 653.730542,234.646788 C654.173005,234.464866 654.610818,234.265437 655.043649,234.049014 L655.250055,233.939637 C655.250055,233.939637 655.250055,233.939637 655.250055,233.939637 C657.898307,232.46884 661.237456,233.423357 662.708252,236.071609 C662.798857,236.234748 662.881077,236.402403 662.954622,236.57391 L667.462789,247.092046 C668.891518,250.428181 667.533978,254.303116 664.334792,256.016672 C664.024865,256.182967 663.814543,256.291223 663.703827,256.341439 C658.480355,258.710601 652.857816,260 647,260 C619.386807,260 597.001693,231.348391 597,196.004009 L597,152 C597,145.23472 596.333521,138.656238 595.075053,132.353944 L594.945277,131.715158 L594.702193,130.573407 L594.491454,129.634263 L594.34468,129.004699 L594.128143,128.108855 L593.824097,126.909969 L593.520129,125.771702 L593.395068,125.319063 L593.136796,124.41058 C592.967598,123.826449 592.793178,123.24525 592.613603,122.667065 L592.340382,121.802057 L592.157054,121.237344 L591.813573,120.210584 L591.56032,119.47778 L591.393624,119.0059 L591.183892,118.423364 L590.99876,117.919019 L590.730151,117.202847 L590.581758,116.814746 C590.412084,116.37396 590.23932,115.935237 590.063499,115.498618 C589.789102,114.8172 589.507255,114.140891 589.218091,113.469859 L588.791647,112.495988 L588.528134,111.909309 L588.054271,110.881499 L587.782254,110.306447 L587.546294,109.816012 L587.030576,108.769911 L586.549102,107.823413 L585.988324,106.755209 L585.747139,106.306487 L585.431668,105.728834 L585.19851,105.308449 L584.842705,104.677285 L584.610145,104.271296 L584.288532,103.718098 L584.029842,103.279884 L583.676869,102.69135 C583.002402,101.576916 582.305667,100.483146 581.587447,99.4109815 L580.928424,98.4419758 L580.251888,97.476888 L579.644974,96.635413 L579.346773,96.2300493 L578.91177,95.647968 L578.678108,95.3397304 C578.388382,94.9594208 578.095778,94.5823202 577.800339,94.208478 L577.182627,93.4366819 L576.556986,92.6745294 L576.367295,92.4472219 L575.867731,91.8567741 L575.567069,91.5070198 L575.159605,91.0395963 L574.821773,90.6576731 L574.134457,89.895982 C573.828855,89.5617963 573.520778,89.2308149 573.210261,88.9030821 C573.003989,88.6853774 572.79701,88.4694862 572.58897,88.2550363 L573.210261,88.9030821 L572.794321,88.4675403 L572.375503,88.0358808 L571.565245,87.2199139 L571.017902,86.6826089 L570.714161,86.3891522 L570.244128,85.9415411 L569.911093,85.6291019 L569.122226,84.904267 L568.715089,84.5383926 L568.499987,84.3473077 C567.883161,83.8015319 567.258602,83.267613 566.626545,82.7458312 L566.352661,82.5208752 L565.838197,82.1044441 L565.415362,81.7680873 L564.970958,81.4202268 L564.583491,81.1216002 L564.095902,80.7518969 L563.734918,80.4825046 L563.193286,80.0850907 L562.863775,79.8472559 C562.564533,79.6326099 562.263844,79.4205686 561.96173,79.2111579 L560.951909,78.5245526 L560.417664,78.1719566 L559.880599,77.8247941 L559.336802,77.4806307 L558.950094,77.2403326 L558.372051,76.8879454 L557.481262,76.3606373 L556.646309,75.8834074 L556.469532,75.7844517 C555.991385,75.5177738 555.51031,75.2573844 555.026379,75.0033723 L554.298351,74.6271479 L553.980213,74.4664315 L553.367656,74.1632302 L552.993041,73.9818262 L552.404971,73.7031553 L552.020964,73.5251721 L551.441515,73.2625147 L551.008049,73.0706418 L550.483703,72.8437706 L550.069731,72.6686709 L549.398247,72.39212 C548.970256,72.2187805 548.540411,72.0502718 548.108758,71.8866477 L549.078588,72.263692 L548.497309,72.0354406 L547.913808,71.8131276 C547.557814,71.6795642 547.200598,71.5493204 546.842184,71.4224265 L546.059191,71.1511952 L545.265835,70.8884951 L544.559333,70.6647262 L543.735459,70.4157726 L543.209005,70.2633983 L542.426945,70.0466205 L542.681012,70.1157942 C542.201299,69.9840507 541.719708,69.8582216 541.236294,69.7383741 L540.669091,69.6007006 L540.166806,69.4836879 L539.623589,69.3622977 L539.138821,69.2584741 L538.556754,69.1393987 L538.149759,69.0597449 L537.475182,68.9342291 L537.091979,68.8665291 L536.57869,68.7799181 L536.064217,68.6977691 L535.519357,68.6158374 L535.168057,68.5657678 C534.749364,68.5073776 534.329543,68.4534209 533.908629,68.4039381 L534.973207,68.5389256 C534.514344,68.4764934 534.054136,68.4193849 533.592627,68.3676529 L532.869399,68.291098 L532.42884,68.2488792 L531.779782,68.1927493 L531.321199,68.1574389 L530.711299,68.1160384 L530.251129,68.0889937 L529.601159,68.0569206 L529.168154,68.0395263 L528.392959,68.0162999 C527.929728,68.0054501 527.465395,68 527,68 C488.340068,68 457,105.608081 457,152 C457,198.391919 488.340068,236 527,236 C536.732451,236 546.001,233.616564 554.422419,229.30957 L554.89873,229.06081 C555.024451,228.993893 555.165551,228.916717 555.322029,228.829281 C558.695966,226.941836 562.960879,228.14787 564.847537,231.522247 C564.921805,231.655079 564.991722,231.790298 565.057803,231.927388 L569.31915,240.876926 C570.90771,244.213373 569.628313,248.209664 566.397748,250.00378 C564.990519,250.784617 564.016578,251.305921 563.475927,251.567693 C552.260149,256.998146 539.935192,260 527,260 C485.587293,260 450.429456,229.231164 437.89973,186.505298 C435.026488,180.508768 433,169.332179 433,152 C433,92.353247 475.085234,44 527,44 C527.464109,44 527.927432,44.0038644 528.389947,44.0115668 L527,44 C527.518765,44 528.036548,44.0048282 528.553318,44.0144476 L529.180444,44.0284845 L530.15598,44.0597248 L530.748708,44.0843114 L531.64767,44.129707 L532.303165,44.1689824 L532.998137,44.2163252 C533.632083,44.2621947 534.264152,44.3152654 534.894398,44.3754752 L535.953688,44.4835699 L536.615386,44.5581086 L537.455366,44.6605332 L538.07329,44.7414719 L539.017353,44.8743163 L539.618258,44.9646787 L540.402162,45.089378 L541.057797,45.1996213 L541.794912,45.3300648 L542.412409,45.4446551 L543.245595,45.6069878 L543.883038,45.7371938 L544.667758,45.9046737 L545.266044,46.0377201 L546.210647,46.2572651 L546.791518,46.3980682 L547.60058,46.6015837 L548.205658,46.7594477 L548.929195,46.95461 C549.511968,47.1146167 550.092737,47.2808914 550.671377,47.4533499 L551.696464,47.7660237 L552.321612,47.9637675 L553.101603,48.2180485 L553.730374,48.4291793 L554.437868,48.6733512 L555.079135,48.9007533 L555.832614,49.175395 C556.655082,49.4795971 557.472668,49.7964898 558.285134,50.1258493 L559.110921,50.4656334 L559.962987,50.8268353 L560.513746,51.0660932 L561.187352,51.3649476 L561.791904,51.6390484 L562.393863,51.9175477 Z" id="Path" fill="#000000"></path>
        <path d="M770,44 C782.647743,44 794.712072,46.8699207 805.72657,52.0738806 L806.475927,52.4323066 C806.859223,52.617891 807.832927,53.1455912 809.397039,54.0154074 C812.623089,55.8119054 813.899162,59.8052502 812.31154,63.1390554 L808.055266,72.0779387 C806.391916,75.5678053 802.214671,77.0492304 798.724509,75.3864991 C798.560406,75.3083197 798.399411,75.2237779 798.242507,75.1319922 C798.092301,75.045495 797.977709,74.9812276 797.89873,74.9391899 L797.422419,74.6904302 C789.001,70.3834356 779.732451,68 770,68 C731.726667,68 700.627533,104.85968 700.009378,150.610906 L700,151.959 L700.009378,153.307733 C700.627533,199.058959 731.726667,235.918639 770,235.918639 C779.732451,235.918639 789.001,233.535204 797.422419,229.228209 L797.89873,228.97945 C797.996871,228.927212 798.122663,228.857414 798.276105,228.770055 C801.634914,226.855813 805.908641,228.030228 807.820239,231.39054 C807.903966,231.537719 807.982325,231.687888 808.055266,231.840701 L812.309004,240.774257 C813.896533,244.110166 812.61801,248.105403 809.387184,249.897139 C807.725481,250.82145 806.755062,251.351181 806.475927,251.486333 C795.260149,256.916785 782.935192,259.918639 770,259.918639 C728.649137,259.918639 693.534477,229.241632 680.956015,186.615272 C678.250639,181.057117 676.284694,170.949677 676.028416,155.491641 L676.009921,153.997103 L676,152.672507 C676,152.449425 676,152.225232 676,152 L676.006083,153.549931 L676.001525,152.738922 L676,151.877358 C676,151.369175 676.002341,150.866301 676.006083,150.368708 L676,151.918639 C676,151.242643 676.003083,150.57601 676.009178,149.918683 L676.022218,148.906003 C676.244594,133.176879 678.222766,122.91956 680.955505,117.301912 C693.533458,74.6778973 728.648537,44 770,44 Z" id="Path" fill="#000000"></path>
        <path d="M882.218816,7 L882.22,150.165 L882.22,150.165 L969.010327,84.7640743 C972.097856,82.4374825 976.486869,83.0543226 978.81349,86.1418291 L984.83164,94.1281842 C987.158315,97.215657 986.541478,101.604678 983.453958,103.931291 C983.453938,103.931307 983.453917,103.931322 983.45385,103.931276 L895.777,169.999 L895.777,169.999 L992.659537,239.420695 C995.802048,241.672479 996.524126,246.045418 994.272343,249.187929 C994.239696,249.23349 994.206503,249.278657 994.172771,249.323421 L988.156185,257.3077 C985.869339,260.342448 981.578989,260.998519 978.489722,258.785874 L882.22,189.834 L882.22,189.834 L882.221603,253 C882.221878,256.865993 879.087951,260.00008 875.221958,260.000178 C875.221899,260.000178 875.221839,260.000178 875.22178,260 L865.22178,260 C861.355842,259.999859 858.221858,256.865938 858.221639,253 L858.22,171.749 L858.22,171.749 L858,171.583626 L858.22,171.291 L858.22,168.708 L858,168.416374 L858.22,168.25 L858.218809,7 C858.218729,3.13400675 861.352713,-2.31404626e-05 865.218706,-5.16861407e-05 C865.218723,-5.16862679e-05 865.21874,-5.16863315e-05 865.218758,0 L875.218758,0 C879.084728,5.79115863e-05 882.218726,3.13402937 882.218816,7 Z" id="Path" fill="#000000"></path>
        <path d="M1105,44 C1155.13273,44 1196.09917,89.0906572 1198.85254,145.899086 C1198.85254,145.899086 1198.85254,145.899086 1198.85254,145.899086 C1199.16117,152.266812 1194.2493,157.679068 1187.88157,157.987697 C1187.69539,157.99672 1187.50903,158.001233 1187.32263,158.001221 L1078,158.000073 C1074.13404,157.999959 1071.00007,154.865965 1071,151 L1071,141 C1071,137.134007 1074.134,134 1078,134 C1078,134 1078,134 1078,134.000003 L1173.38911,134.000046 L1173.38911,134.000046 C1166.52242,96.2578388 1138.5112,68 1105,68 C1066.34007,68 1035,105.608081 1035,152 C1035,198.391919 1066.34007,236 1105,236 C1114.73245,236 1124.001,233.616564 1132.42242,229.30957 C1132.71646,229.159188 1133.03384,228.990476 1133.37456,228.803433 C1136.76393,226.943833 1141.0189,228.184494 1142.87807,231.574095 C1142.94257,231.691699 1143.00368,231.811132 1143.06034,231.932715 L1147.33691,240.914216 C1148.93358,244.268852 1147.6308,248.286298 1144.36826,250.063611 C1143.25118,250.673596 1142.28706,251.174957 1141.47593,251.567693 C1130.26015,256.998146 1117.93519,260 1105,260 C1053.08523,260 1011,211.646753 1011,152 C1011,92.353247 1053.08523,44 1105,44 Z" id="Path" fill="#000000"></path>
        <path d="M1238,60 L1248,60 C1251.86599,59.9990045 1255,63.1330112 1255,66.9990045 C1255,66.9993363 1255,66.9996682 1254.999,66.9999999 L1254.99698,81.2513459 L1254.99698,81.2513459 C1272.20707,58.3856311 1297.19356,44 1325,44 C1376.91477,44 1419,94.144108 1419,156 L1419,253 C1419,256.865993 1415.86599,260 1412,260 L1402,260 C1398.13401,260 1395,256.865993 1395,253 L1395,156 L1395,156 C1395,107.398942 1363.65993,68 1325,68 C1286.34007,68 1255,107.398942 1255,156 L1255,253 C1255,256.865993 1251.86599,260 1248,260 L1238,260 C1234.13401,260 1231,256.865993 1231,253 L1231,67 C1231,63.1340068 1234.13401,60 1238,60 Z" id="Path" fill="#000000"></path>
        <rect id="Rectangle" fill="#000000" x="0" y="44" width="188" height="216" rx="24"></rect>
    </g>
</svg>