<?xml version="1.0" encoding="UTF-8"?>
<svg width="1642px" height="364px" viewBox="0 0 1642 364" version="1.1" xmlns="http://www.w3.org/2000/svg" xmlns:xlink="http://www.w3.org/1999/xlink">
    <title>logo-dark</title>
    <g id="logo-dark" stroke="none" stroke-width="1" fill="none" fill-rule="evenodd">
        <path d="M382.335245,51.9175477 L383.041642,52.251524 L383.737692,52.5882382 L384.303045,52.8673546 L385.02473,53.2310515 L385.587951,53.5207091 L386.363674,53.9280929 L386.907235,54.2194369 L387.654219,54.6278138 L388.198361,54.9311847 L388.937213,55.3511455 C389.450761,55.646288 389.961437,55.946557 390.469318,56.251966 L391.344307,56.7849165 L391.902254,57.1319069 L392.616653,57.5844355 L393.151432,57.9293117 L393.864665,58.3975452 L394.382526,58.7435135 L395.087272,59.222549 C395.575052,59.5574093 396.060099,59.8972973 396.542272,60.242093 L397.407082,60.8680218 L397.939494,61.2609269 L398.580265,61.741558 L399.123354,62.1556506 L399.736294,62.6305332 C400.470556,63.2042327 401.197567,63.7897258 401.916996,64.3866803 L403.175167,65.448976 L403.661941,65.8699607 L404.316151,66.4447424 L404.764385,66.8446048 L405.470369,67.4845586 L405.911966,67.8912803 L406.455424,68.3987292 C407.140601,69.0433701 407.817637,69.6988373 408.486381,70.3649472 L409.670262,71.5641987 L410.087521,71.9966168 L410.762747,72.7074456 L411.179165,73.1527783 L411.727683,73.7476665 C412.355442,74.4339523 412.974966,75.1301227 413.586057,75.8359509 L414.696877,77.1407126 L415.618129,78.2568493 C416.065235,78.8062762 416.507264,79.3608916 416.944278,79.9207796 L416.944278,67 C416.944278,63.1340068 420.078285,60 423.944278,60 L433.941381,60 C437.807357,60.0000437 440.941357,63.1340238 440.941425,67 L440.943235,357 C440.943302,360.865993 437.809315,364.00002 433.943322,364.000044 C433.943307,364.000044 433.943293,364.000044 433.943278,364 L423.944278,364 C420.078322,363.999904 416.944331,360.865956 416.944182,357 L416.941381,152 L416.941381,152 C416.941381,145.23472 416.274902,138.656238 415.016435,132.353944 L414.886658,131.715158 L414.643575,130.573407 L414.432836,129.634263 L414.286061,129.004699 L414.069525,128.108855 L413.765478,126.909969 L413.46151,125.771702 L413.336449,125.319063 L413.078177,124.41058 C412.908979,123.826449 412.734559,123.24525 412.554984,122.667065 L412.281763,121.802057 L412.098435,121.237344 L411.754954,120.210584 L411.501701,119.47778 L411.335005,119.0059 L411.125273,118.423364 L410.940141,117.919019 L410.671532,117.202847 L410.52314,116.814746 C410.353465,116.37396 410.180701,115.935237 410.004881,115.498618 C409.730483,114.8172 409.448637,114.140891 409.159472,113.469859 L408.733029,112.495988 L408.469515,111.909309 L407.995652,110.881499 L407.723635,110.306447 L407.487675,109.816012 L406.971957,108.769911 L406.490483,107.823413 L405.929706,106.755209 L405.688521,106.306487 L405.37305,105.728834 L405.139891,105.308449 L404.784087,104.677285 L404.551526,104.271296 L404.229913,103.718098 L403.971224,103.279884 L403.61825,102.69135 C402.943783,101.576916 402.247048,100.483146 401.528828,99.4109815 L400.869805,98.4419758 L400.193269,97.476888 L399.586355,96.635413 L399.288154,96.2300493 L398.853151,95.647968 L398.61949,95.3397304 C398.329763,94.9594208 398.037159,94.5823202 397.741721,94.208478 L397.124008,93.4366819 L396.498367,92.6745294 L396.308676,92.4472219 L395.809112,91.8567741 L395.50845,91.5070198 L395.100986,91.0395963 L394.763154,90.6576731 L394.075839,89.895982 C393.770237,89.5617963 393.462159,89.2308149 393.151642,88.9030821 C392.945371,88.6853774 392.738391,88.4694862 392.530351,88.2550363 L393.151642,88.9030821 L392.735702,88.4675403 L392.316885,88.0358808 L391.506626,87.2199139 L390.959283,86.6826089 L390.655542,86.3891522 L390.185509,85.9415411 L389.852474,85.6291019 L389.063607,84.904267 L388.65647,84.5383926 L388.441368,84.3473077 C387.824542,83.8015319 387.199983,83.267613 386.567926,82.7458312 L386.294042,82.5208752 L385.779578,82.1044441 L385.356743,81.7680873 L384.912339,81.4202268 L384.524872,81.1216002 L384.037283,80.7518969 L383.676299,80.4825046 L383.134667,80.0850907 L382.805156,79.8472559 C382.505914,79.6326099 382.205225,79.4205686 381.903111,79.2111579 L380.89329,78.5245526 L380.359045,78.1719566 L379.82198,77.8247941 L379.278183,77.4806307 L378.891475,77.2403326 L378.313432,76.8879454 L377.422644,76.3606373 L376.58769,75.8834074 L376.410913,75.7844517 C375.932767,75.5177738 375.451691,75.2573844 374.96776,75.0033723 L374.239732,74.6271479 L373.921594,74.4664315 L373.309037,74.1632302 L372.934423,73.9818262 L372.346353,73.7031553 L371.962345,73.5251721 L371.382896,73.2625147 L370.94943,73.0706418 L370.425084,72.8437706 L370.011112,72.6686709 L369.339628,72.39212 C368.911637,72.2187805 368.481792,72.0502718 368.05014,71.8866477 L369.019969,72.263692 L368.43869,72.0354406 L367.85519,71.8131276 C367.499195,71.6795642 367.141979,71.5493204 366.783566,71.4224265 L366.000572,71.1511952 L365.207217,70.8884951 L364.500714,70.6647262 L363.67684,70.4157726 L363.150386,70.2633983 L362.368326,70.0466205 L362.622393,70.1157942 C362.142681,69.9840507 361.661089,69.8582216 361.177675,69.7383741 L360.610472,69.6007006 L360.108187,69.4836879 L359.56497,69.3622977 L359.080203,69.2584741 L358.498136,69.1393987 L358.091141,69.0597449 L357.416563,68.9342291 L357.033361,68.8665291 L356.520072,68.7799181 L356.005598,68.6977691 L355.460738,68.6158374 L355.109439,68.5657678 C354.690745,68.5073776 354.270924,68.4534209 353.85001,68.4039381 L354.914588,68.5389256 C354.455725,68.4764934 353.995517,68.4193849 353.534008,68.3676529 L352.81078,68.291098 L352.370221,68.2488792 L351.721163,68.1927493 L351.262581,68.1574389 L350.65268,68.1160384 L350.19251,68.0889937 L349.54254,68.0569206 L349.109536,68.0395263 L348.334341,68.0162999 C347.871109,68.0054501 347.406776,68 346.941381,68 C308.281449,68 276.941381,105.608081 276.941381,152 C276.941381,198.391919 308.281449,236 346.941381,236 C356.673832,236 365.942382,233.616564 374.3638,229.30957 L374.840112,229.06081 C374.965832,228.993893 375.106932,228.916717 375.26341,228.829281 C378.637347,226.941836 382.90226,228.14787 384.788919,231.522247 C384.863187,231.655079 384.933103,231.790298 384.999184,231.927388 L389.260531,240.876926 C390.849092,244.213373 389.569694,248.209664 386.339129,250.00378 C384.9319,250.784617 383.95796,251.305921 383.417308,251.567693 C372.20153,256.998146 359.876573,260 346.941381,260 C305.528674,260 270.370838,229.231164 257.841111,186.505298 C254.967869,180.508768 252.941381,169.332179 252.941381,152 C252.941381,92.353247 295.026615,44 346.941381,44 C347.40549,44 347.868813,44.0038644 348.331328,44.0115668 L346.941381,44 C347.460146,44 347.977929,44.0048282 348.494699,44.0144476 L349.121826,44.0284845 L350.097361,44.0597248 L350.690089,44.0843114 L351.589051,44.129707 L352.244546,44.1689824 L352.939519,44.2163252 C353.573464,44.2621947 354.205533,44.3152654 354.835779,44.3754752 L355.895069,44.4835699 L356.556767,44.5581086 L357.396747,44.6605332 L358.014671,44.7414719 L358.958734,44.8743163 L359.55964,44.9646787 L360.343543,45.089378 L360.999178,45.1996213 L361.736293,45.3300648 L362.353791,45.4446551 L363.186976,45.6069878 L363.824419,45.7371938 L364.609139,45.9046737 L365.207425,46.0377201 L366.152029,46.2572651 L366.732899,46.3980682 L367.541962,46.6015837 L368.147039,46.7594477 L368.870576,46.95461 C369.453349,47.1146167 370.034119,47.2808914 370.612758,47.4533499 L371.637846,47.7660237 L372.262993,47.9637675 L373.042985,48.2180485 L373.671755,48.4291793 L374.379249,48.6733512 L375.020517,48.9007533 L375.773995,49.175395 C376.596463,49.4795971 377.41405,49.7964898 378.226515,50.1258493 L379.052302,50.4656334 L379.904368,50.8268353 L380.455127,51.0660932 L381.128733,51.3649476 L381.733285,51.6390484 L382.335245,51.9175477 Z" id="Path" fill="#FFFFFF" transform="translate(346.942330, 204.000000) scale(-1, 1) translate(-346.942330, -204.000000) "></path>
        <path d="M594.393863,51.9175477 L595.100261,52.251524 L595.796311,52.5882382 L596.361664,52.8673546 L597.083349,53.2310515 L597.64657,53.5207091 L598.422293,53.9280929 L598.965853,54.2194369 L599.712838,54.6278138 L600.25698,54.9311847 L600.995832,55.3511455 C601.50938,55.646288 602.020056,55.946557 602.527937,56.251966 L603.402926,56.7849165 L603.960873,57.1319069 L604.675272,57.5844355 L605.210051,57.9293117 L605.923284,58.3975452 L606.441145,58.7435135 L607.145891,59.222549 C607.633671,59.5574093 608.118717,59.8972973 608.600891,60.242093 L609.465701,60.8680218 L609.998113,61.2609269 L610.638884,61.741558 L611.181972,62.1556506 L611.794913,62.6305332 C612.529175,63.2042327 613.256186,63.7897258 613.975615,64.3866803 L615.233786,65.448976 L615.72056,65.8699607 L616.374769,66.4447424 L616.823004,66.8446048 L617.528987,67.4845586 L617.970585,67.8912803 L618.514043,68.3987292 C619.19922,69.0433701 619.876256,69.6988373 620.545,70.3649472 L621.728881,71.5641987 L622.14614,71.9966168 L622.821366,72.7074456 L623.237784,73.1527783 L623.786302,73.7476665 C624.41406,74.4339523 625.033584,75.1301227 625.644676,75.8359509 L626.755496,77.1407126 L627.676748,78.2568493 C628.123854,78.8062762 628.565883,79.3608916 629.002897,79.9207796 L629.002897,67 C629.002897,63.1340068 632.136904,60 636.002897,60 L646,60 C649.865993,59.9999485 653,63.1339553 653,66.9999485 C653,66.9999657 653,66.9999828 652.999949,67 L652.999,196.003967 L652.999,196.003967 L653.003483,196.661473 C653.233084,218.447771 664.784191,236 679,236 C681.327619,236 683.583799,235.529442 685.730542,234.646788 C686.173005,234.464866 686.610818,234.265437 687.043649,234.049014 L687.250055,233.939637 C687.250055,233.939637 687.250055,233.939637 687.250055,233.939637 C689.898307,232.46884 693.237456,233.423357 694.708252,236.071609 C694.798857,236.234748 694.881077,236.402403 694.954622,236.57391 L699.462789,247.092046 C700.891518,250.428181 699.533978,254.303116 696.334792,256.016672 C696.024865,256.182967 695.814543,256.291223 695.703827,256.341439 C690.480355,258.710601 684.857816,260 679,260 C651.386807,260 629.001693,231.348391 629,196.004009 L629,152 C629,145.23472 628.333521,138.656238 627.075053,132.353944 L626.945277,131.715158 L626.702193,130.573407 L626.491454,129.634263 L626.34468,129.004699 L626.128143,128.108855 L625.824097,126.909969 L625.520129,125.771702 L625.395068,125.319063 L625.136796,124.41058 C624.967598,123.826449 624.793178,123.24525 624.613603,122.667065 L624.340382,121.802057 L624.157054,121.237344 L623.813573,120.210584 L623.56032,119.47778 L623.393624,119.0059 L623.183892,118.423364 L622.99876,117.919019 L622.730151,117.202847 L622.581758,116.814746 C622.412084,116.37396 622.23932,115.935237 622.063499,115.498618 C621.789102,114.8172 621.507255,114.140891 621.218091,113.469859 L620.791647,112.495988 L620.528134,111.909309 L620.054271,110.881499 L619.782254,110.306447 L619.546294,109.816012 L619.030576,108.769911 L618.549102,107.823413 L617.988324,106.755209 L617.747139,106.306487 L617.431668,105.728834 L617.19851,105.308449 L616.842705,104.677285 L616.610145,104.271296 L616.288532,103.718098 L616.029842,103.279884 L615.676869,102.69135 C615.002402,101.576916 614.305667,100.483146 613.587447,99.4109815 L612.928424,98.4419758 L612.251888,97.476888 L611.644974,96.635413 L611.346773,96.2300493 L610.91177,95.647968 L610.678108,95.3397304 C610.388382,94.9594208 610.095778,94.5823202 609.800339,94.208478 L609.182627,93.4366819 L608.556986,92.6745294 L608.367295,92.4472219 L607.867731,91.8567741 L607.567069,91.5070198 L607.159605,91.0395963 L606.821773,90.6576731 L606.134457,89.895982 C605.828855,89.5617963 605.520778,89.2308149 605.210261,88.9030821 C605.003989,88.6853774 604.79701,88.4694862 604.58897,88.2550363 L605.210261,88.9030821 L604.794321,88.4675403 L604.375503,88.0358808 L603.565245,87.2199139 L603.017902,86.6826089 L602.714161,86.3891522 L602.244128,85.9415411 L601.911093,85.6291019 L601.122226,84.904267 L600.715089,84.5383926 L600.499987,84.3473077 C599.883161,83.8015319 599.258602,83.267613 598.626545,82.7458312 L598.352661,82.5208752 L597.838197,82.1044441 L597.415362,81.7680873 L596.970958,81.4202268 L596.583491,81.1216002 L596.095902,80.7518969 L595.734918,80.4825046 L595.193286,80.0850907 L594.863775,79.8472559 C594.564533,79.6326099 594.263844,79.4205686 593.96173,79.2111579 L592.951909,78.5245526 L592.417664,78.1719566 L591.880599,77.8247941 L591.336802,77.4806307 L590.950094,77.2403326 L590.372051,76.8879454 L589.481262,76.3606373 L588.646309,75.8834074 L588.469532,75.7844517 C587.991385,75.5177738 587.51031,75.2573844 587.026379,75.0033723 L586.298351,74.6271479 L585.980213,74.4664315 L585.367656,74.1632302 L584.993041,73.9818262 L584.404971,73.7031553 L584.020964,73.5251721 L583.441515,73.2625147 L583.008049,73.0706418 L582.483703,72.8437706 L582.069731,72.6686709 L581.398247,72.39212 C580.970256,72.2187805 580.540411,72.0502718 580.108758,71.8866477 L581.078588,72.263692 L580.497309,72.0354406 L579.913808,71.8131276 C579.557814,71.6795642 579.200598,71.5493204 578.842184,71.4224265 L578.059191,71.1511952 L577.265835,70.8884951 L576.559333,70.6647262 L575.735459,70.4157726 L575.209005,70.2633983 L574.426945,70.0466205 L574.681012,70.1157942 C574.201299,69.9840507 573.719708,69.8582216 573.236294,69.7383741 L572.669091,69.6007006 L572.166806,69.4836879 L571.623589,69.3622977 L571.138821,69.2584741 L570.556754,69.1393987 L570.149759,69.0597449 L569.475182,68.9342291 L569.091979,68.8665291 L568.57869,68.7799181 L568.064217,68.6977691 L567.519357,68.6158374 L567.168057,68.5657678 C566.749364,68.5073776 566.329543,68.4534209 565.908629,68.4039381 L566.973207,68.5389256 C566.514344,68.4764934 566.054136,68.4193849 565.592627,68.3676529 L564.869399,68.291098 L564.42884,68.2488792 L563.779782,68.1927493 L563.321199,68.1574389 L562.711299,68.1160384 L562.251129,68.0889937 L561.601159,68.0569206 L561.168154,68.0395263 L560.392959,68.0162999 C559.929728,68.0054501 559.465395,68 559,68 C520.340068,68 489,105.608081 489,152 C489,198.391919 520.340068,236 559,236 C568.732451,236 578.001,233.616564 586.422419,229.30957 L586.89873,229.06081 C587.024451,228.993893 587.165551,228.916717 587.322029,228.829281 C590.695966,226.941836 594.960879,228.14787 596.847537,231.522247 C596.921805,231.655079 596.991722,231.790298 597.057803,231.927388 L601.31915,240.876926 C602.90771,244.213373 601.628313,248.209664 598.397748,250.00378 C596.990519,250.784617 596.016578,251.305921 595.475927,251.567693 C584.260149,256.998146 571.935192,260 559,260 C517.587293,260 482.429456,229.231164 469.89973,186.505298 C467.026488,180.508768 465,169.332179 465,152 C465,92.353247 507.085234,44 559,44 C559.464109,44 559.927432,44.0038644 560.389947,44.0115668 L559,44 C559.518765,44 560.036548,44.0048282 560.553318,44.0144476 L561.180444,44.0284845 L562.15598,44.0597248 L562.748708,44.0843114 L563.64767,44.129707 L564.303165,44.1689824 L564.998137,44.2163252 C565.632083,44.2621947 566.264152,44.3152654 566.894398,44.3754752 L567.953688,44.4835699 L568.615386,44.5581086 L569.455366,44.6605332 L570.07329,44.7414719 L571.017353,44.8743163 L571.618258,44.9646787 L572.402162,45.089378 L573.057797,45.1996213 L573.794912,45.3300648 L574.412409,45.4446551 L575.245595,45.6069878 L575.883038,45.7371938 L576.667758,45.9046737 L577.266044,46.0377201 L578.210647,46.2572651 L578.791518,46.3980682 L579.60058,46.6015837 L580.205658,46.7594477 L580.929195,46.95461 C581.511968,47.1146167 582.092737,47.2808914 582.671377,47.4533499 L583.696464,47.7660237 L584.321612,47.9637675 L585.101603,48.2180485 L585.730374,48.4291793 L586.437868,48.6733512 L587.079135,48.9007533 L587.832614,49.175395 C588.655082,49.4795971 589.472668,49.7964898 590.285134,50.1258493 L591.110921,50.4656334 L591.962987,50.8268353 L592.513746,51.0660932 L593.187352,51.3649476 L593.791904,51.6390484 L594.393863,51.9175477 Z" id="Path" fill="#FFFFFF"></path>
        <path d="M802,44 C814.647743,44 826.712072,46.8699207 837.72657,52.0738806 L838.475927,52.4323066 C838.859223,52.617891 839.832927,53.1455912 841.397039,54.0154074 C844.623089,55.8119054 845.899162,59.8052502 844.31154,63.1390554 L840.055266,72.0779387 C838.391916,75.5678053 834.214671,77.0492304 830.724509,75.3864991 C830.560406,75.3083197 830.399411,75.2237779 830.242507,75.1319922 C830.092301,75.045495 829.977709,74.9812276 829.89873,74.9391899 L829.422419,74.6904302 C821.001,70.3834356 811.732451,68 802,68 C763.726667,68 732.627533,104.85968 732.009378,150.610906 L732,151.959 L732.009378,153.307733 C732.627533,199.058959 763.726667,235.918639 802,235.918639 C811.732451,235.918639 821.001,233.535204 829.422419,229.228209 L829.89873,228.97945 C829.996871,228.927212 830.122663,228.857414 830.276105,228.770055 C833.634914,226.855813 837.908641,228.030228 839.820239,231.39054 C839.903966,231.537719 839.982325,231.687888 840.055266,231.840701 L844.309004,240.774257 C845.896533,244.110166 844.61801,248.105403 841.387184,249.897139 C839.725481,250.82145 838.755062,251.351181 838.475927,251.486333 C827.260149,256.916785 814.935192,259.918639 802,259.918639 C760.649137,259.918639 725.534477,229.241632 712.956015,186.615272 C710.250639,181.057117 708.284694,170.949677 708.028416,155.491641 L708.009921,153.997103 L708,152.672507 C708,152.449425 708,152.225232 708,152 L708.006083,153.549931 L708.001525,152.738922 L708,151.877358 C708,151.369175 708.002341,150.866301 708.006083,150.368708 L708,151.918639 C708,151.242643 708.003083,150.57601 708.009178,149.918683 L708.022218,148.906003 C708.244594,133.176879 710.222766,122.91956 712.955505,117.301912 C725.533458,74.6778973 760.648537,44 802,44 Z" id="Path" fill="#FFFFFF"></path>
        <path d="M1163,44 C1213.13273,44 1254.09917,89.0906572 1256.85254,145.899086 C1256.85254,145.899086 1256.85254,145.899086 1256.85254,145.899086 C1257.16117,152.266812 1252.2493,157.679068 1245.88157,157.987697 C1245.69539,157.99672 1245.50903,158.001233 1245.32263,158.001221 L1136,158.000073 C1132.13404,157.999959 1129.00007,154.865965 1129,151 L1129,141 C1129,137.134007 1132.134,134 1136,134 C1136,134 1136,134 1136,134.000003 L1231.38911,134.000046 L1231.38911,134.000046 C1224.52242,96.2578388 1196.5112,68 1163,68 C1124.34007,68 1093,105.608081 1093,152 C1093,198.391919 1124.34007,236 1163,236 C1172.73245,236 1182.001,233.616564 1190.42242,229.30957 C1190.71646,229.159188 1191.03384,228.990476 1191.37456,228.803433 C1194.76393,226.943833 1199.0189,228.184494 1200.87807,231.574095 C1200.94257,231.691699 1201.00368,231.811132 1201.06034,231.932715 L1205.33691,240.914216 C1206.93358,244.268852 1205.6308,248.286298 1202.36826,250.063611 C1201.25118,250.673596 1200.28706,251.174957 1199.47593,251.567693 C1188.26015,256.998146 1175.93519,260 1163,260 C1111.08523,260 1069,211.646753 1069,152 C1069,92.353247 1111.08523,44 1163,44 Z" id="Path" fill="#FFFFFF"></path>
        <path d="M1296,60 L1306,60 C1309.86599,59.9990045 1313,63.1330112 1313,66.9990045 C1313,66.9993363 1313,66.9996682 1312.999,66.9999999 L1312.99698,81.2513459 L1312.99698,81.2513459 C1330.20707,58.3856311 1355.19356,44 1383,44 C1434.91477,44 1477,94.144108 1477,156 L1477,253 C1477,256.865993 1473.86599,260 1470,260 L1460,260 C1456.13401,260 1453,256.865993 1453,253 L1453,156 L1453,156 C1453,107.398942 1421.65993,68 1383,68 C1344.34007,68 1313,107.398942 1313,156 L1313,253 C1313,256.865993 1309.86599,260 1306,260 L1296,260 C1292.13401,260 1289,256.865993 1289,253 L1289,67 C1289,63.1340068 1292.13401,60 1296,60 Z" id="Path" fill="#FFFFFF"></path>
        <rect id="Rectangle" fill="#21375D" x="0" y="44" width="188" height="216" rx="24"></rect>
        <path d="M914,7 L914,150.737 L914,150.737 L1022.44306,61.5972977 C1023.69924,60.5647208 1025.27573,60.0016942 1026.90183,60.0048912 L1043.23871,60.0370102 C1046.98035,60.0443664 1050.00759,63.0835285 1050.00023,66.8251686 C1049.99626,68.8470805 1049.08941,70.7615446 1047.52746,72.0454727 L970.25,135.568 L970.25,135.568 L1053.9053,248.836902 C1056.20206,251.946697 1055.54296,256.329571 1052.43316,258.626325 C1051.22955,259.515259 1049.77277,259.995125 1048.27648,259.995543 L1035.84619,259.999013 C1033.62405,259.999634 1031.53361,258.945138 1030.21346,257.157652 L951.684,150.829 L951.684,150.829 L914,181.806 L914,253 C914,256.865993 910.865993,260 907,260 L897,260 C893.134007,260 890,256.865993 890,253 L890,7 C890,3.13400675 893.134007,4.26288512e-15 897,0 L907,0 C910.865993,-1.59834986e-15 914,3.13400675 914,7 Z" id="Path" fill="#FFFFFF"></path>
    </g>
</svg>